<svg xmlns="http://www.w3.org/2000/svg" width="500" height="217.613" viewBox="0 0 500 217.613">
  <g id="Banner" transform="translate(-97 388.094)">
    <g id="Group_161177" data-name="Group 161177" transform="translate(97 -351.795)">
      <path id="Path_227768" data-name="Path 227768" d="M0,16H500V149.066S376.074,232.25,252.348,233.6,0,149.066,0,149.066Z" transform="translate(0 -52.299)"/>
    </g>
    <g id="Source" transform="translate(0 -169.795)">
      <path id="Path_227896" data-name="Path 227896" d="M-129.745,0l-8.82-14.385,7.385-9.765h-5.81l-7.63,10.43V-24.15h-4.9V0h4.9V-6.4l2.87-3.78L-135.59,0Zm16.135-24.15V-9.765c0,4.13-1.365,5.95-4.375,5.95s-4.375-1.82-4.375-5.95V-24.15h-4.9V-9.765c0,7.105,3.92,10.08,9.275,10.08S-108.71-2.66-108.71-9.8V-24.15Zm25.9,3.64c-1.715-2.66-4.62-3.955-8.47-3.955-5.74,0-8.26,2.975-8.26,6.79,0,3.99,2.38,6.265,7.14,7.525,3.92,1.015,4.935,1.96,4.935,3.64,0,1.47-.945,2.7-3.745,2.7a6.033,6.033,0,0,1-5.25-2.415L-105.1-3.64c2.135,2.8,5.075,3.955,9.31,3.955,5.67,0,8.33-3.08,8.33-7.035,0-4.27-2.275-6.16-7.315-7.42-3.22-.8-4.76-1.645-4.76-3.535,0-1.645,1.19-2.66,3.395-2.66a4.918,4.918,0,0,1,4.76,2.45Zm8.785-3.64h-4.9V0h4.9V-10.43h8.365V0h4.9V-24.15h-4.9v9.59h-8.365ZM-58.135,0l1.47-4.585h8.085L-47.11,0h5.215l-8.4-24.15h-4.69L-63.385,0Zm5.495-17.22,2.73,8.505h-5.46Zm17.92-6.93h-4.9V0h15.05V-4.13H-34.72ZM-4.655,0C.805,0,4.62-2.835,4.62-10.5v-3.15c0-7.7-3.815-10.5-9.275-10.5H-13.23V0Zm0-4.13H-8.33V-19.985h3.675c3.255,0,4.375,2.17,4.375,6.335v3.15C-.28-6.335-1.4-4.13-4.655-4.13Zm18.55-20.02h-4.9V0h4.9ZM21.735,0,23.2-4.585H31.29L32.76,0h5.215l-8.4-24.15h-4.69L16.485,0ZM27.23-17.22l2.73,8.505H24.5Zm17.605-6.93H40.25V0h4.655V-14.875L50.085-4.34H53.06l5.25-10.64V0H63V-24.15H58.345l-6.72,13.16Zm40.7,13.79v-3.43c0-7.455-3.815-10.675-9.275-10.675-5.425,0-9.24,3.22-9.24,10.675v3.43c0,7.385,3.815,10.675,9.24,10.675C81.725.315,85.54-2.975,85.54-10.36ZM71.925-13.79c0-4.62,1.505-6.545,4.34-6.545S80.64-18.41,80.64-13.79v3.43c0,4.62-1.54,6.545-4.375,6.545s-4.34-1.925-4.34-6.545Zm31.15-10.36V-8.995L93.625-24.15h-4.06V0H94.22V-14.945L103.635,0h4.1V-24.15ZM121.1,0c5.46,0,9.275-2.835,9.275-10.5v-3.15c0-7.7-3.815-10.5-9.275-10.5h-8.575V0Zm0-4.13h-3.675V-19.985H121.1c3.255,0,4.375,2.17,4.375,6.335v3.15C125.475-6.335,124.355-4.13,121.1-4.13Zm29.295-16.38c-1.715-2.66-4.62-3.955-8.47-3.955-5.74,0-8.26,2.975-8.26,6.79,0,3.99,2.38,6.265,7.14,7.525,3.92,1.015,4.935,1.96,4.935,3.64,0,1.47-.945,2.7-3.745,2.7a6.033,6.033,0,0,1-5.25-2.415L133-3.64c2.135,2.8,5.075,3.955,9.31,3.955,5.67,0,8.33-3.08,8.33-7.035,0-4.27-2.275-6.16-7.315-7.42-3.22-.8-4.76-1.645-4.76-3.535,0-1.645,1.19-2.66,3.4-2.66a4.918,4.918,0,0,1,4.76,2.45Z" transform="translate(347 -157)" fill="#fff"/>
      <path id="Path_227895" data-name="Path 227895" d="M-73.48,0l-2.94-5.98a3.6,3.6,0,0,0,2.5-3.7c0-2.74-1.9-4.12-5.08-4.12h-4.7V0h2.32V-5.6h2.68L-76.04,0Zm-7.9-7.6v-4.18h2.22c1.96,0,2.92.54,2.92,2.1S-77.2-7.6-79.16-7.6ZM-69.4,0l.94-2.86h4.98L-62.54,0h2.46l-4.8-13.8h-2.2L-71.88,0Zm3.42-10.44,1.84,5.58h-3.68Zm7.04,8.7A4.642,4.642,0,0,0-54.88.18c2.9,0,4.66-1.56,4.66-5.64V-13.8h-2.32v8.34c0,2.74-.82,3.62-2.44,3.62a2.417,2.417,0,0,1-2.02-1ZM-46.18-13.8V0h8.46V-2h-6.14V-6.14h5.54v-2h-5.54v-3.64h6.14V-13.8Zm19.34,0v9.5l-5.68-9.5h-2V0h2.24V-9.38L-26.66,0h2.06V-13.8ZM-9.9,0c3.1,0,5.18-1.66,5.18-6.08V-7.72c0-4.42-2.08-6.08-5.18-6.08h-4.66V0Zm0-2h-2.34v-9.78H-9.9c1.98,0,2.86,1.22,2.86,4.06v1.64C-7.04-3.24-7.92-2-9.9-2ZM1.28-13.8H-1.04V0H1.28ZM6.5,0l.94-2.86h4.98L13.36,0h2.46l-4.8-13.8H8.82L4.02,0ZM9.92-10.44l1.84,5.58H8.08ZM20.6-13.8H18.4V0h2.24V-9.18l3.1,6.52h1.64l3.16-6.58V0h2.24V-13.8H28.56l-3.98,8Zm24,7.78V-7.78c0-4.34-2.08-6.2-5.18-6.2-3.08,0-5.16,1.86-5.16,6.2v1.76c0,4.34,2.08,6.2,5.16,6.2C42.52.18,44.6-1.68,44.6-6.02ZM36.58-7.78c0-2.98,1-4.18,2.84-4.18s2.86,1.2,2.86,4.18v1.76c0,2.98-1.02,4.18-2.86,4.18s-2.84-1.2-2.84-4.18ZM55.76-13.8v9.5l-5.68-9.5h-2V0h2.24V-9.38L55.94,0H58V-13.8ZM66.7,0c3.1,0,5.18-1.66,5.18-6.08V-7.72c0-4.42-2.08-6.08-5.18-6.08H62.04V0Zm0-2H64.36v-9.78H66.7c1.98,0,2.86,1.22,2.86,4.06v1.64C69.56-3.24,68.68-2,66.7-2Zm17.52-9.72a5.149,5.149,0,0,0-4.72-2.26c-3.24,0-4.6,1.74-4.6,3.82,0,2.34,1.5,3.62,4.16,4.18,2.4.52,3.02,1.2,3.02,2.3,0,1-.6,1.84-2.5,1.84a3.7,3.7,0,0,1-3.22-1.5L74.54-2.08A5.9,5.9,0,0,0,79.7.18c3.32,0,4.7-1.9,4.7-3.96,0-2.48-1.44-3.52-4.22-4.12-1.92-.42-2.96-.94-2.96-2.26,0-1.16.84-1.8,2.26-1.8a3.218,3.218,0,0,1,2.98,1.5Z" transform="translate(347 -127)" fill="#cf9115"/>
      <path id="Path_227894" data-name="Path 227894" d="M-25.692-7.02a2.927,2.927,0,0,0-2.736-1.356c-1.9,0-2.676,1.044-2.676,2.232,0,1.44,1.008,2.184,2.568,2.424s1.956.768,1.956,1.548c0,.708-.4,1.332-1.752,1.332a2.383,2.383,0,0,1-2.1-1.008l-.852.588A3.344,3.344,0,0,0-28.332.1c2.064,0,2.784-1.236,2.784-2.316,0-1.536-.972-2.112-2.568-2.388-1.212-.216-1.956-.552-1.956-1.536,0-.864.648-1.3,1.608-1.3a2.2,2.2,0,0,1,1.968,1ZM-22.2-8.28h-1.032V0H-22.2Zm7.344,0v6.324l-3.6-6.324h-.984V0h1.032V-6.264L-14.832,0h1.008V-8.28ZM-5.628-5.7A2.782,2.782,0,0,0-8.6-8.376c-1.836,0-3,1.1-3,3.78v.912C-11.6-1.008-10.44.1-8.6.1A2.774,2.774,0,0,0-5.64-2.58h-1C-6.912-1.368-7.524-.84-8.6-.84c-1.272,0-1.968-.792-1.968-2.844V-4.6c0-2.052.7-2.844,1.968-2.844,1.02,0,1.68.444,1.968,1.74Zm1.98-2.58V0H1.344V-.936h-3.96v-2.88h3.6v-.936h-3.6V-7.344h3.96V-8.28Zm13.38,0H8.7l-1.188.912V-6.24L8.7-7.092V0H9.732ZM14.6,0h1.152l1.7-4.032a5.526,5.526,0,0,0,.564-1.92,2.3,2.3,0,0,0-2.388-2.424A2.316,2.316,0,0,0,13.248-5.9,2.21,2.21,0,0,0,15.42-3.48a1.637,1.637,0,0,0,.78-.168Zm2.388-5.9a1.371,1.371,0,0,1-1.356,1.536A1.377,1.377,0,0,1,14.28-5.9,1.371,1.371,0,0,1,15.636-7.44,1.365,1.365,0,0,1,16.992-5.9Zm2.736,3.576A2.432,2.432,0,0,0,22.224.1a2.432,2.432,0,0,0,2.5-2.424A2.151,2.151,0,0,0,23.448-4.3,2.049,2.049,0,0,0,24.6-6.1a2.292,2.292,0,0,0-2.376-2.28A2.292,2.292,0,0,0,19.848-6.1a2.038,2.038,0,0,0,1.14,1.8A2.18,2.18,0,0,0,19.728-2.328Zm1.032,0A1.463,1.463,0,0,1,22.224-3.8a1.478,1.478,0,0,1,1.464,1.476A1.475,1.475,0,0,1,22.224-.84,1.46,1.46,0,0,1,20.76-2.328ZM20.868-6.1A1.344,1.344,0,0,1,22.224-7.44,1.342,1.342,0,0,1,23.568-6.1a1.355,1.355,0,0,1-1.344,1.368A1.357,1.357,0,0,1,20.868-6.1ZM28.8-4.584c.984,0,1.392.708,1.392,2,0,1.248-.54,1.74-1.392,1.74a1.291,1.291,0,0,1-1.308-1.1H26.484A2.233,2.233,0,0,0,28.8.1c1.584,0,2.424-1.044,2.424-2.676,0-1.86-.7-3.036-2.232-3.036a1.677,1.677,0,0,0-1.32.54V-7.248h3.2V-8.28h-4.2v4.308h.948A1.4,1.4,0,0,1,28.8-4.584Z" transform="translate(347 -99)" fill="#fff" opacity="0.7"/>
    </g>
  </g>
</svg>
