<svg xmlns="http://www.w3.org/2000/svg" width="50" height="50" viewBox="0 0 50 50">
  <g id="acrobat-reader-svgrepo-com" transform="translate(-2 -2)">
    <path id="Path_195117" data-name="Path 195117" d="M2,20.1c0-6.334,0-9.5,1.233-11.92A11.31,11.31,0,0,1,8.175,3.233C10.594,2,13.761,2,20.1,2H33.9c6.334,0,9.5,0,11.92,1.233a11.31,11.31,0,0,1,4.943,4.942C52,10.594,52,13.761,52,20.1V33.9c0,6.334,0,9.5-1.233,11.92a11.31,11.31,0,0,1-4.943,4.943C43.406,52,40.239,52,33.9,52H20.1c-6.334,0-9.5,0-11.92-1.233a11.31,11.31,0,0,1-4.942-4.943C2,43.406,2,40.239,2,33.9Z" transform="translate(0 0)" fill="#bf282d"/>
    <path id="Path_195118" data-name="Path 195118" d="M38.659,27.259c-2.429-2.665-9.048-1.5-10.647-1.333A36.73,36.73,0,0,1,23.5,19.951a26.662,26.662,0,0,0,1.457-7.975c0-2.5-.972-4.976-3.542-4.976a2.572,2.572,0,0,0-2.267,1.333c-1.134,2-.648,5.976,1.134,10.119A67.049,67.049,0,0,1,15.765,29.4c-2.591,1-8.238,3.644-8.724,6.642a2.487,2.487,0,0,0,.81,2.332,2.98,2.98,0,0,0,2.267.833c3.38,0,6.781-4.81,9.21-9.141A50.923,50.923,0,0,1,27.4,27.9c3.542,3.331,6.781,3.81,8.4,3.81,2.267,0,3.077-1,3.38-1.832A2.418,2.418,0,0,0,38.659,27.259Zm-2.267,1.666c-.162.666-.972,1.333-2.429,1a11.621,11.621,0,0,1-4.676-2.5,21.412,21.412,0,0,1,5.809-.167A1.5,1.5,0,0,1,36.392,28.925ZM20.725,9a.887.887,0,0,1,.81-.5c.81,0,.972,1,.972,1.832a24.341,24.341,0,0,1-1.134,5.976C20.077,12.663,20.239,10,20.725,9Zm-.162,18.76a40.418,40.418,0,0,0,2.105-5.309,29.162,29.162,0,0,0,2.915,3.977A24.025,24.025,0,0,0,20.563,27.759ZM15.077,31.59c-2.247,3.644-4.352,5.976-5.647,5.976a.953.953,0,0,1-.648-.167,1.127,1.127,0,0,1-.162-1C8.782,35.067,11.373,33.235,15.077,31.59Z" transform="translate(3.333 3.333)" fill="#fff"/>
  </g>
</svg>
