<svg xmlns="http://www.w3.org/2000/svg" width="430" height="110" viewBox="0 0 430 110">
  <g id="DownloadProfile" transform="translate(-458.595 -689.5)">
    <g id="Rectangle_6504" data-name="Rectangle 6504" transform="translate(458.595 689.5)" fill="#fff" stroke="#707070" stroke-width="1" opacity="0">
      <rect width="430" height="110" stroke="none"/>
      <rect x="0.5" y="0.5" width="429" height="109" fill="none"/>
    </g>
    <path id="Path_196835" data-name="Path 196835" d="M-9.905,0h90" transform="translate(474 744.5)" fill="none" stroke="#707070" stroke-width="0.5" opacity="0.5"/>
    <path id="Path_196836" data-name="Path 196836" d="M0,0H201.5" transform="translate(681.597 744.5)" fill="none" stroke="#707070" stroke-width="0.5" opacity="0.5"/>
    <g id="Button" transform="translate(76.464 226.5)">
      <path id="Path_196832" data-name="Path 196832" d="M10.242,0H195.624c5.657,0,10.242,5.6,10.242,12.5v25c0,6.9-4.586,12.5-10.242,12.5H10.242C4.586,50,0,44.4,0,37.5v-25C0,5.6,4.586,0,10.242,0Z" transform="translate(387.63 493)" fill="#051042"/>
      <g id="Group_159979" data-name="Group 159979" transform="translate(-1.51 0.101)">
        <path id="Path_196825" data-name="Path 196825" d="M29.288,21.262c-1.71-1.876-6.37-1.055-7.5-.938a25.858,25.858,0,0,1-3.178-4.207A18.77,18.77,0,0,0,19.641,10.5c0-1.759-.684-3.5-2.494-3.5a1.81,1.81,0,0,0-1.6.938c-.8,1.407-.456,4.207.8,7.124a47.2,47.2,0,0,1-3.178,7.71c-1.824.7-5.8,2.565-6.142,4.676A1.751,1.751,0,0,0,7.6,29.09a2.1,2.1,0,0,0,1.6.586c2.38,0,4.774-3.386,6.484-6.435a35.85,35.85,0,0,1,5.686-1.524A8.674,8.674,0,0,0,27.279,24.4c1.6,0,2.166-.7,2.38-1.29A1.7,1.7,0,0,0,29.288,21.262Zm-1.6,1.173c-.114.469-.684.938-1.71.7A8.181,8.181,0,0,1,22.69,21.38a15.074,15.074,0,0,1,4.09-.117A1.058,1.058,0,0,1,27.692,22.435ZM16.662,8.407a.625.625,0,0,1,.57-.352c.57,0,.684.7.684,1.29a17.136,17.136,0,0,1-.8,4.207C16.206,10.987,16.32,9.111,16.662,8.407Zm-.114,13.207a28.454,28.454,0,0,0,1.482-3.738,20.53,20.53,0,0,0,2.052,2.8A16.914,16.914,0,0,0,16.548,21.614Zm-3.862,2.7c-1.582,2.565-3.064,4.207-3.976,4.207a.671.671,0,0,1-.456-.117.794.794,0,0,1-.114-.7C8.255,26.759,10.079,25.469,12.686,24.311Z" transform="translate(398.556 499.561)" fill="#ce9115"/>
        <path id="Path_218121" data-name="Path 218121" d="M-69.035,0V-11.375h3.211a5.169,5.169,0,0,1,2.625.656,4.438,4.438,0,0,1,1.762,1.867,6.078,6.078,0,0,1,.629,2.781v.727a6.1,6.1,0,0,1-.621,2.82A4.369,4.369,0,0,1-63.2-.664,5.5,5.5,0,0,1-65.887,0Zm1.5-10.141v8.914h1.578a3.435,3.435,0,0,0,2.7-1.078,4.452,4.452,0,0,0,.965-3.07v-.664a4.522,4.522,0,0,0-.91-3.012,3.24,3.24,0,0,0-2.582-1.09ZM-59.152-4.3a4.993,4.993,0,0,1,.488-2.234A3.643,3.643,0,0,1-57.3-8.07a3.7,3.7,0,0,1,1.988-.539,3.565,3.565,0,0,1,2.793,1.2,4.6,4.6,0,0,1,1.066,3.18v.1a5.036,5.036,0,0,1-.473,2.215A3.589,3.589,0,0,1-53.281-.391,3.743,3.743,0,0,1-55.3.156a3.556,3.556,0,0,1-2.785-1.2A4.575,4.575,0,0,1-59.152-4.2Zm1.453.172a3.616,3.616,0,0,0,.652,2.258,2.088,2.088,0,0,0,1.746.852,2.075,2.075,0,0,0,1.75-.863A3.955,3.955,0,0,0-52.9-4.3a3.61,3.61,0,0,0-.66-2.254,2.1,2.1,0,0,0-1.754-.863,2.075,2.075,0,0,0-1.727.852A3.925,3.925,0,0,0-57.7-4.133ZM-42.16-1.992l1.625-6.461h1.445L-41.551,0h-1.172l-2.055-6.406-2,6.406h-1.172L-50.4-8.453h1.438L-47.3-2.125l1.969-6.328h1.164Zm5.906-6.461.047,1.063a3.08,3.08,0,0,1,2.531-1.219q2.68,0,2.7,3.023V0h-1.445V-5.594a1.946,1.946,0,0,0-.418-1.352,1.675,1.675,0,0,0-1.277-.437,2.086,2.086,0,0,0-1.234.375,2.546,2.546,0,0,0-.828.984V0h-1.445V-8.453ZM-27.223,0h-1.445V-12h1.445Zm1.93-4.3A4.993,4.993,0,0,1-24.8-6.539,3.643,3.643,0,0,1-23.445-8.07a3.7,3.7,0,0,1,1.988-.539,3.565,3.565,0,0,1,2.793,1.2A4.6,4.6,0,0,1-17.6-4.234v.1a5.036,5.036,0,0,1-.473,2.215A3.589,3.589,0,0,1-19.422-.391a3.743,3.743,0,0,1-2.02.547,3.556,3.556,0,0,1-2.785-1.2A4.575,4.575,0,0,1-25.293-4.2Zm1.453.172a3.616,3.616,0,0,0,.652,2.258,2.088,2.088,0,0,0,1.746.852,2.075,2.075,0,0,0,1.75-.863A3.955,3.955,0,0,0-19.043-4.3a3.61,3.61,0,0,0-.66-2.254,2.1,2.1,0,0,0-1.754-.863,2.075,2.075,0,0,0-1.727.852A3.925,3.925,0,0,0-23.84-4.133ZM-10.566,0a3.036,3.036,0,0,1-.2-.891A3.225,3.225,0,0,1-13.176.156a2.984,2.984,0,0,1-2.051-.707,2.287,2.287,0,0,1-.8-1.793,2.39,2.39,0,0,1,1-2.051,4.733,4.733,0,0,1,2.824-.73h1.406v-.664A1.623,1.623,0,0,0-11.246-7a1.821,1.821,0,0,0-1.336-.449,2.107,2.107,0,0,0-1.3.391,1.151,1.151,0,0,0-.523.945h-1.453a2,2,0,0,1,.449-1.223,3.066,3.066,0,0,1,1.219-.934A4.1,4.1,0,0,1-12.5-8.609a3.342,3.342,0,0,1,2.289.73,2.635,2.635,0,0,1,.859,2.012v3.891a4.757,4.757,0,0,0,.3,1.852V0Zm-2.4-1.1a2.54,2.54,0,0,0,1.289-.352,2.127,2.127,0,0,0,.883-.914V-4.1h-1.133q-2.656,0-2.656,1.555a1.316,1.316,0,0,0,.453,1.063A1.742,1.742,0,0,0-12.965-1.1Zm5.531-3.2a4.952,4.952,0,0,1,.922-3.129A2.915,2.915,0,0,1-4.1-8.609,2.932,2.932,0,0,1-1.746-7.594V-12H-.3V0H-1.629L-1.7-.906A2.943,2.943,0,0,1-4.113.156a2.887,2.887,0,0,1-2.395-1.2,5.008,5.008,0,0,1-.926-3.141Zm1.445.164a3.749,3.749,0,0,0,.594,2.25,1.92,1.92,0,0,0,1.641.813A2.108,2.108,0,0,0-1.746-2.3V-6.187a2.125,2.125,0,0,0-1.992-1.2,1.929,1.929,0,0,0-1.656.82A4.128,4.128,0,0,0-5.988-4.133ZM5.824,0V-11.375H9.809a5.232,5.232,0,0,1,3.141.793,2.712,2.712,0,0,1,1.07,2.324,2.57,2.57,0,0,1-.43,1.473,2.482,2.482,0,0,1-1.2.934,2.4,2.4,0,0,1,1.379.883,2.61,2.61,0,0,1,.5,1.625A3,3,0,0,1,13.23-.859,4.713,4.713,0,0,1,10.246,0ZM8.168-4.953v3.07h2.008a1.938,1.938,0,0,0,1.293-.395,1.353,1.353,0,0,0,.465-1.09,1.428,1.428,0,0,0-1.617-1.586Zm0-1.656H9.9q1.773-.031,1.773-1.414a1.307,1.307,0,0,0-.449-1.113,2.363,2.363,0,0,0-1.418-.34H8.168Zm12.469.273a6.134,6.134,0,0,0-.812-.062,1.654,1.654,0,0,0-1.68.867V0H15.887V-8.453H18.02l.063,1.008a2.092,2.092,0,0,1,1.883-1.164,2.366,2.366,0,0,1,.7.1ZM21.09-4.3a5.013,5.013,0,0,1,.484-2.242A3.546,3.546,0,0,1,22.969-8.07a4.069,4.069,0,0,1,2.113-.539,3.849,3.849,0,0,1,2.793,1.047,4.2,4.2,0,0,1,1.207,2.844l.016.578A4.418,4.418,0,0,1,28.012-1.02,3.775,3.775,0,0,1,25.1.156,3.793,3.793,0,0,1,22.18-1.016,4.5,4.5,0,0,1,21.09-4.2Zm2.258.164A3.151,3.151,0,0,0,23.8-2.3a1.5,1.5,0,0,0,1.3.637,1.5,1.5,0,0,0,1.281-.629A3.448,3.448,0,0,0,26.84-4.3a3.12,3.12,0,0,0-.461-1.828,1.5,1.5,0,0,0-1.3-.648,1.475,1.475,0,0,0-1.281.645A3.506,3.506,0,0,0,23.348-4.141ZM34-1.664a1.481,1.481,0,0,0,1.016-.344,1.2,1.2,0,0,0,.406-.914h2.117a2.9,2.9,0,0,1-.469,1.574A3.093,3.093,0,0,1,35.813-.238a3.949,3.949,0,0,1-1.77.395A3.67,3.67,0,0,1,31.184-1,4.56,4.56,0,0,1,30.137-4.18v-.148a4.508,4.508,0,0,1,1.039-3.117,3.627,3.627,0,0,1,2.852-1.164,3.555,3.555,0,0,1,2.543.9,3.2,3.2,0,0,1,.973,2.4H35.426a1.539,1.539,0,0,0-.406-1.066,1.358,1.358,0,0,0-1.031-.41,1.361,1.361,0,0,0-1.191.574,3.324,3.324,0,0,0-.4,1.863v.234a3.366,3.366,0,0,0,.4,1.875A1.378,1.378,0,0,0,34-1.664Zm7.031-5.867a2.818,2.818,0,0,1,2.258-1.078q2.75,0,2.789,3.2V0H43.824V-5.352a1.57,1.57,0,0,0-.312-1.074,1.34,1.34,0,0,0-1.039-.348,1.537,1.537,0,0,0-1.437.766V0H38.777V-12h2.258ZM52.848-.859A2.831,2.831,0,0,1,50.535.156a2.67,2.67,0,0,1-2.074-.781,3.335,3.335,0,0,1-.73-2.289V-8.453h2.258v5.461q0,1.32,1.2,1.32a1.631,1.631,0,0,0,1.578-.8V-8.453h2.266V0H52.91Zm8.641-5.477a6.134,6.134,0,0,0-.812-.062A1.654,1.654,0,0,0,59-5.531V0H56.738V-8.453h2.133l.063,1.008a2.092,2.092,0,0,1,1.883-1.164,2.366,2.366,0,0,1,.7.1ZM66.465.156A4.15,4.15,0,0,1,63.438-.984,4.054,4.054,0,0,1,62.27-4.023v-.219a5.106,5.106,0,0,1,.492-2.277,3.612,3.612,0,0,1,1.395-1.547,3.914,3.914,0,0,1,2.059-.543,3.508,3.508,0,0,1,2.73,1.094,4.444,4.444,0,0,1,1,3.1v.922H64.559a2.1,2.1,0,0,0,.66,1.328,2,2,0,0,0,1.395.5,2.437,2.437,0,0,0,2.039-.945l1.109,1.242A3.389,3.389,0,0,1,68.387-.246,4.511,4.511,0,0,1,66.465.156Zm-.258-6.937a1.414,1.414,0,0,0-1.09.453,2.341,2.341,0,0,0-.535,1.3h3.141v-.18a1.669,1.669,0,0,0-.406-1.16A1.459,1.459,0,0,0,66.207-6.781Z" transform="translate(508.65 523.82)" fill="#fff"/>
      </g>
    </g>
  </g>
</svg>
