<svg xmlns="http://www.w3.org/2000/svg" width="32" height="31.804" viewBox="0 0 32 31.804">
  <path id="facebook-svgrepo-com_2_" data-name="facebook-svgrepo-com (2)" d="M33,17.095A16,16,0,1,0,14.411,32.888l.092.013V21.721H10.44V17.095H14.5V13.572a5.4,5.4,0,0,1-.031-.594A5.648,5.648,0,0,1,20.119,7.33c.15,0,.3.006.448.017h-.019a24.677,24.677,0,0,1,3.725.333l-.143-.02V11.6H22.111a2.248,2.248,0,0,0-.3-.02,2.313,2.313,0,0,0-2.313,2.313c0,.073,0,.144.01.216v2.991H23.94l-.71,4.626H19.5V32.9A16.029,16.029,0,0,0,33,17.095h0Z" transform="translate(-1.004 -1.097)" fill="#2c64f6"/>
</svg>
