<svg id="Google_Maps_icon__2020_" data-name="Google_Maps_icon_(2020)" xmlns="http://www.w3.org/2000/svg" width="27.915" height="40" viewBox="0 0 27.915 40">
  <path id="Path_213657" data-name="Path 213657" d="M25.724.665A14.123,14.123,0,0,0,21.465,0,13.921,13.921,0,0,0,10.8,4.985l6.586,5.529Z" transform="translate(-7.537 0)" fill="#1a73e8"/>
  <path id="Path_213658" data-name="Path 213658" d="M3.263,16.5A13.942,13.942,0,0,0,0,25.443a15.415,15.415,0,0,0,1.39,6.647l8.459-10.06Z" transform="translate(0 -11.515)" fill="#ea4335"/>
  <path id="Path_213659" data-name="Path 213659" d="M36.709,10.146a5.337,5.337,0,0,1,4.079,8.792s4.2-5.015,8.308-9.879A13.918,13.918,0,0,0,40.938,2.2L32.6,12.049a5.42,5.42,0,0,1,4.109-1.9" transform="translate(-22.751 -1.535)" fill="#4285f4"/>
  <path id="Path_213660" data-name="Path 213660" d="M17.168,43.561a5.338,5.338,0,0,1-5.347-5.347A5.2,5.2,0,0,1,13.059,34.8L4.6,44.86c1.45,3.2,3.867,5.8,6.344,9.033l10.3-12.236a5.3,5.3,0,0,1-4.079,1.9" transform="translate(-3.21 -24.286)" fill="#fbbc04"/>
  <path id="Path_213661" data-name="Path 213661" d="M35.721,50.368c4.653-7.281,10.06-10.574,10.06-19.033A13.972,13.972,0,0,0,44.21,24.9L25.6,46.985c.785,1.027,1.6,2.205,2.387,3.414,2.84,4.381,2.054,6.979,3.867,6.979s1.027-2.628,3.867-7.009" transform="translate(-17.866 -17.377)" fill="#34a853"/>
</svg>
