<svg xmlns="http://www.w3.org/2000/svg" width="421" height="120" viewBox="0 0 421 120">
  <g id="MessageBox" transform="translate(-480.5 -710.801)">
    <path id="Path_213754" data-name="Path 213754" d="M0,0H421V120H0Z" transform="translate(480.5 710.801)" fill="#fff" opacity="0"/>
    <g id="Source" transform="translate(-63.25 15)">
      <path id="Path_227898" data-name="Path 227898" d="M-154.265-13.068h3.416l2.963,7.841L-149.112.237Zm9.83-.444.4,2.022-4.385,9.512-.123.332a8.2,8.2,0,0,0-.251.839,4.564,4.564,0,0,0-.136,1.044h-.185L-149.7-2.2l5.089-11.31Zm0,.009,4.318,8.674L-141.145.237l-4.733-9.521Zm7.441.435-3.612,11.09-.1.349a8.057,8.057,0,0,0-.189.863,4.309,4.309,0,0,0-.056,1h-.193l-.611-1.978,3.348-11.328Zm-1.8,1.288a.951.951,0,0,0-.08-.912.812.812,0,0,0-.634-.288h-.163v-.22h4.133v.22h-.154a1.971,1.971,0,0,0-1.024.3,1.588,1.588,0,0,0-.7.912Zm-11.552,0-3.422.009a1.809,1.809,0,0,0-.7-.912,1.831,1.831,0,0,0-1.01-.3h-.163v-.22h6.175v.22h-.189a.856.856,0,0,0-.631.29Q-150.567-12.4-150.347-11.776Zm19.729-1.425V0h-3.171V-13.2Zm5.144,12.318.517.882h-5.7V-.882Zm-.74-6.1V-6.1h-4.447v-.887Zm.986-6.217v.882h-5.433V-13.2Zm1.174,9.159L-124.9,0h-3.8l.681-.882a3.6,3.6,0,0,0,1.691-.386,3.691,3.691,0,0,0,1.263-1.094,5.235,5.235,0,0,0,.806-1.679Zm-2.159-2.1v1.935h-.229v-.166a1.728,1.728,0,0,0-.454-1.223,1.629,1.629,0,0,0-1.223-.5V-6.14Zm0-2.721v1.922h-1.905v-.044a1.617,1.617,0,0,0,1.223-.509,1.753,1.753,0,0,0,.454-1.23v-.139Zm.986-3.509v2.333h-.229v-.2a2.136,2.136,0,0,0-.517-1.513,1.957,1.957,0,0,0-1.477-.57v-.053Zm0-1.168v.545l-2.308-.207a7.983,7.983,0,0,0,1.339-.121A6.277,6.277,0,0,0-125.229-13.539Zm-8.5,12.157.1,1.381h-1.62V-.22h.268a1.157,1.157,0,0,0,.842-.339,1.139,1.139,0,0,0,.354-.823Zm0-10.433h-.057a1.135,1.135,0,0,0-.354-.836,1.173,1.173,0,0,0-.842-.33h-.268v-.22h1.62Zm20.864-1.667q.442,0,1.065.037t1.244.1q.621.062,1.1.139a3.353,3.353,0,0,1,.631.143l-.285,2.672h-.184a2,2,0,0,0-.71-1.6,3.03,3.03,0,0,0-2.021-.6,2.866,2.866,0,0,0-1.714.471,1.574,1.574,0,0,0-.7,1.231,1.216,1.216,0,0,0,.157.717,1.864,1.864,0,0,0,.525.556,8.124,8.124,0,0,0,.751.478L-109.544-7a3.494,3.494,0,0,1,1.376,1.294A3.378,3.378,0,0,1-107.73-3.7a3.883,3.883,0,0,1-.706,2.136,4.059,4.059,0,0,1-1.786,1.374,6.924,6.924,0,0,1-2.67.473,9.655,9.655,0,0,1-1.756-.15,6.087,6.087,0,0,1-1.4-.414,2.9,2.9,0,0,1-.909-.6,2.533,2.533,0,0,1-.146-1.055,5.469,5.469,0,0,1,.2-1.255,4.289,4.289,0,0,1,.429-1.046h.184a3.482,3.482,0,0,0,.36,1.821,3.2,3.2,0,0,0,1.26,1.327,3.907,3.907,0,0,0,2.008.5,2.747,2.747,0,0,0,1.918-.593,1.847,1.847,0,0,0,.634-1.4,1.634,1.634,0,0,0-.387-1.057,4,4,0,0,0-1.259-.93l-3.131-1.986a3.567,3.567,0,0,1-1.591-1.52,3.5,3.5,0,0,1-.36-2.072,3.759,3.759,0,0,1,.624-1.795,3.339,3.339,0,0,1,1.376-1.142A4.644,4.644,0,0,1-112.867-13.481Zm4.053.2-.032.383h-2.35v-.383Zm9.957.149V0h-3.193V-13.134Zm4.776-.088v.887h-12.746v-.887Zm0,.816v2.333h-.229v-.205a2,2,0,0,0-.517-1.489,2.053,2.053,0,0,0-1.491-.568v-.071Zm0-1.155V-13l-2.317-.22a7.922,7.922,0,0,0,.9-.055q.482-.055.879-.136A2.923,2.923,0,0,0-94.081-13.561Zm-7.925,12.179V0h-1.486V-.22h.238a1.146,1.146,0,0,0,.841-.339,1.2,1.2,0,0,0,.363-.823Zm3.07,0h.079a1.09,1.09,0,0,0,.349.826,1.186,1.186,0,0,0,.854.342h.229V0h-1.512Zm-5.653-11.024v.071a2.029,2.029,0,0,0-1.484.568,2.06,2.06,0,0,0-.524,1.489v.205h-.229v-2.333Zm-2.237-1.155q.188.062.573.145t.859.138a7.7,7.7,0,0,0,.885.055l-2.317.22Zm18.17.361v8.3a4.832,4.832,0,0,0,.942,3.159A3.191,3.191,0,0,0-85.108-.593a3.429,3.429,0,0,0,2.695-1.079,4.364,4.364,0,0,0,.979-2.983V-13.2h1.453v8.4a4.868,4.868,0,0,1-1.443,3.726A5.738,5.738,0,0,1-85.513.281a7.14,7.14,0,0,1-4.743-1.347,4.616,4.616,0,0,1-1.572-3.7V-13.2Zm-3.127,0v1.139h-.044a.911.911,0,0,0-.3-.678,1,1,0,0,0-.7-.268h-.307V-13.2Zm4.433,0v.193h-.318a.993.993,0,0,0-.7.268.881.881,0,0,0-.292.678H-88.7V-13.2Zm5.96,0v1.139h-.044a.932.932,0,0,0-.3-.678.984.984,0,0,0-.7-.268h-.308V-13.2Zm2.715,0v.193h-.3a1,1,0,0,0-.7.268.9.9,0,0,0-.3.678h-.044V-13.2Zm8.607,0a9.568,9.568,0,0,1,4.056.785,5.836,5.836,0,0,1,2.6,2.264,6.673,6.673,0,0,1,.9,3.551,6.651,6.651,0,0,1-.9,3.547,5.871,5.871,0,0,1-2.6,2.264A9.523,9.523,0,0,1-70.069,0h-4.886L-75-.874h4.663A3.931,3.931,0,0,0-67.069-2.4a6.642,6.642,0,0,0,1.2-4.2,6.7,6.7,0,0,0-1.189-4.211,3.92,3.92,0,0,0-3.274-1.528h-4.87v-.86Zm-2.735,0V0h-3.18V-13.2ZM-75.926-1.417V0H-77.5V-.22h.273a1.193,1.193,0,0,0,.873-.356,1.177,1.177,0,0,0,.367-.84ZM-75.94-11.81h-.044a1.154,1.154,0,0,0-.385-.842,1.264,1.264,0,0,0-.878-.328h-.264v-.22h1.571Zm27.873-1.324V0H-51.26V-13.134Zm4.776-.088v.887H-56.037v-.887Zm0,.816v2.333h-.229v-.205a2,2,0,0,0-.517-1.489,2.053,2.053,0,0,0-1.491-.568v-.071Zm0-1.155V-13l-2.317-.22a7.922,7.922,0,0,0,.9-.055q.482-.055.879-.136A2.923,2.923,0,0,0-43.291-13.561ZM-51.216-1.381V0H-52.7V-.22h.238a1.146,1.146,0,0,0,.841-.339,1.2,1.2,0,0,0,.363-.823Zm3.07,0h.079a1.09,1.09,0,0,0,.349.826,1.186,1.186,0,0,0,.854.342h.229V0h-1.513ZM-53.8-12.406v.071a2.029,2.029,0,0,0-1.484.568,2.06,2.06,0,0,0-.524,1.489v.205h-.229v-2.333Zm-2.237-1.155q.188.062.573.145t.859.138a7.7,7.7,0,0,0,.885.055l-2.317.22Zm18.471.361h2.357a8.528,8.528,0,0,1,1.772.182,5,5,0,0,1,1.542.59,3.034,3.034,0,0,1,1.085,1.1,3.408,3.408,0,0,1,.4,1.73,4.013,4.013,0,0,1-.313,1.529,3.306,3.306,0,0,1-.987,1.318,3.549,3.549,0,0,1-1.758.716,2.944,2.944,0,0,1,1.236.776,6.156,6.156,0,0,1,.894,1.087l.319.545q.226.385.563.886t.711,1.02a7.617,7.617,0,0,0,.774.913,2,2,0,0,0,.689.456,2.3,2.3,0,0,0,.8.129V0h-1.844a9.56,9.56,0,0,1-2.011-.181,3.511,3.511,0,0,1-1.425-.645A5.068,5.068,0,0,1-33.887-2.11q-.181-.3-.407-.695t-.439-.819q-.214-.421-.382-.817a6.077,6.077,0,0,1-.247-.67A2.473,2.473,0,0,0-36-6.12a1.175,1.175,0,0,0-.676-.331v-.193l.165,0q.152,0,.394,0a2.839,2.839,0,0,0,.911-.172,1.881,1.881,0,0,0,.828-.633,3.2,3.2,0,0,0,.546-1.394,3.239,3.239,0,0,0,.065-.372,2.79,2.79,0,0,0,.009-.548,3.143,3.143,0,0,0-.291-1.307,2.029,2.029,0,0,0-.627-.749,2.34,2.34,0,0,0-.753-.356,3.109,3.109,0,0,0-.667-.106q-.433-.018-.769-.009t-.523,0a1.049,1.049,0,0,1-.055-.234l-.083-.45Zm.21,0V0H-40.54V-13.2ZM-40.474-1.381-40.384,0h-1.59V-.22h.268a1.131,1.131,0,0,0,.82-.339,1.14,1.14,0,0,0,.354-.823Zm0-10.446h-.057a1.125,1.125,0,0,0-.348-.829,1.135,1.135,0,0,0-.813-.323h-.282v-.22h1.59Zm3.066,10.446h.053a1.065,1.065,0,0,0,.387.849,1.257,1.257,0,0,0,.813.312h.232l.009.22H-37.5ZM-23.7-13.2v8.3a4.832,4.832,0,0,0,.942,3.159A3.191,3.191,0,0,0-20.149-.593a3.429,3.429,0,0,0,2.695-1.079,4.364,4.364,0,0,0,.979-2.983V-13.2h1.453v8.4a4.868,4.868,0,0,1-1.443,3.726A5.738,5.738,0,0,1-20.554.281,7.14,7.14,0,0,1-25.3-1.065a4.616,4.616,0,0,1-1.572-3.7V-13.2Zm-3.127,0v1.139h-.044a.911.911,0,0,0-.3-.678,1,1,0,0,0-.7-.268h-.307V-13.2Zm4.433,0v.193h-.318a.993.993,0,0,0-.7.268.881.881,0,0,0-.292.678h-.044V-13.2Zm5.96,0v1.139h-.044a.932.932,0,0,0-.3-.678.984.984,0,0,0-.7-.268h-.308V-13.2Zm2.715,0v.193h-.3a1,1,0,0,0-.7.268.9.9,0,0,0-.3.678h-.044V-13.2Zm5.691-.281q.442,0,1.065.037t1.244.1q.622.062,1.1.139a3.354,3.354,0,0,1,.631.143l-.285,2.672H-4.46a2,2,0,0,0-.71-1.6,3.03,3.03,0,0,0-2.021-.6,2.866,2.866,0,0,0-1.714.471,1.574,1.574,0,0,0-.7,1.231,1.216,1.216,0,0,0,.157.717,1.864,1.864,0,0,0,.525.556,8.125,8.125,0,0,0,.751.478L-4.7-7A3.494,3.494,0,0,1-3.326-5.71,3.378,3.378,0,0,1-2.889-3.7,3.883,3.883,0,0,1-3.6-1.566,4.059,4.059,0,0,1-5.381-.192a6.924,6.924,0,0,1-2.67.473A9.655,9.655,0,0,1-9.807.131a6.087,6.087,0,0,1-1.4-.414,2.9,2.9,0,0,1-.909-.6,2.533,2.533,0,0,1-.146-1.055,5.469,5.469,0,0,1,.2-1.255,4.289,4.289,0,0,1,.429-1.046h.184a3.482,3.482,0,0,0,.36,1.821,3.2,3.2,0,0,0,1.26,1.327,3.907,3.907,0,0,0,2.008.5,2.747,2.747,0,0,0,1.918-.593,1.847,1.847,0,0,0,.634-1.4,1.634,1.634,0,0,0-.387-1.057,4,4,0,0,0-1.259-.93l-3.131-1.986a3.567,3.567,0,0,1-1.591-1.52,3.5,3.5,0,0,1-.36-2.072,3.759,3.759,0,0,1,.624-1.795A3.339,3.339,0,0,1-9.99-13.086,4.644,4.644,0,0,1-8.026-13.481Zm4.053.2L-4-12.9h-2.35v-.383Zm9.957.149V0H2.791V-13.134Zm4.776-.088v.887H-1.985v-.887Zm0,.816v2.333h-.229v-.205a2,2,0,0,0-.517-1.489,2.053,2.053,0,0,0-1.491-.568v-.071Zm0-1.155V-13l-2.317-.22a7.922,7.922,0,0,0,.9-.055q.482-.055.879-.136A2.923,2.923,0,0,0,10.761-13.561ZM2.835-1.381V0H1.349V-.22h.238a1.146,1.146,0,0,0,.841-.339,1.2,1.2,0,0,0,.363-.823Zm3.07,0h.079a1.09,1.09,0,0,0,.349.826,1.186,1.186,0,0,0,.854.342h.229V0H5.9ZM.252-12.406v.071a2.029,2.029,0,0,0-1.484.568,2.06,2.06,0,0,0-.524,1.489v.205h-.229v-2.333Zm-2.237-1.155q.188.062.573.145t.859.138a7.7,7.7,0,0,0,.885.055L-1.985-13ZM23.493-13.8,30.011-.119H26.3L22.2-9.76ZM19.354-1.446a.792.792,0,0,0,.066.91.939.939,0,0,0,.685.316h.168V0h-4.4V-.22h.176A1.869,1.869,0,0,0,16.979-.5a2.041,2.041,0,0,0,.8-.947ZM23.493-13.8l.047,2.64L18.756-.066H17.13l5.147-11.069q.053-.134.208-.471t.333-.762q.178-.425.323-.815a2.729,2.729,0,0,0,.168-.619Zm1.915,9.491v.86H19.792v-.86Zm.321,2.866h3.649a2.065,2.065,0,0,0,.8.947A1.856,1.856,0,0,0,31.1-.22h.176V0H24.8V-.22h.176a.935.935,0,0,0,.682-.316A.792.792,0,0,0,25.729-1.446ZM36.038-13.2V0H32.867V-13.2ZM41.168-.882,41.7,0h-5.7V-.882Zm1.445-3.158L41.751,0h-3.8l.681-.882a3.6,3.6,0,0,0,1.691-.386,3.69,3.69,0,0,0,1.263-1.094,5.235,5.235,0,0,0,.806-1.679Zm-9.689,2.66L33.023,0H31.4V-.22h.268a1.157,1.157,0,0,0,.842-.339,1.139,1.139,0,0,0,.354-.823Zm3.061-10.438V-13.2h1.521v.22h-.251a1.206,1.206,0,0,0-.853.328,1.133,1.133,0,0,0-.365.834Zm-3.061,0h-.057a1.114,1.114,0,0,0-.362-.834,1.208,1.208,0,0,0-.851-.328H31.4v-.22h1.521Zm18.56-1.662a10.091,10.091,0,0,1,3.187.475,7.165,7.165,0,0,1,2.469,1.372,5.983,5.983,0,0,1,1.588,2.169,7.161,7.161,0,0,1,.552,2.878,7.078,7.078,0,0,1-.552,2.858,6,6,0,0,1-1.588,2.162A7.165,7.165,0,0,1,54.671-.194a10.091,10.091,0,0,1-3.187.475,10.005,10.005,0,0,1-3.169-.475A7.174,7.174,0,0,1,45.85-1.566a6,6,0,0,1-1.588-2.162,7.08,7.08,0,0,1-.552-2.858,7.163,7.163,0,0,1,.552-2.878,5.981,5.981,0,0,1,1.588-2.169,7.174,7.174,0,0,1,2.465-1.372A10.005,10.005,0,0,1,51.484-13.481Zm0,12.9a3.836,3.836,0,0,0,2.34-.732,4.674,4.674,0,0,0,1.536-2.08,8.533,8.533,0,0,0,.543-3.2,8.618,8.618,0,0,0-.543-3.22,4.673,4.673,0,0,0-1.536-2.082,3.836,3.836,0,0,0-2.34-.732,3.8,3.8,0,0,0-2.318.732,4.717,4.717,0,0,0-1.542,2.082,8.524,8.524,0,0,0-.55,3.22,8.44,8.44,0,0,0,.55,3.2,4.719,4.719,0,0,0,1.542,2.08A3.8,3.8,0,0,0,51.484-.579ZM61.823-13.5,74.733-2.153,74.966.281,62.057-11.068Zm.1,12.166V0H60.284V-.22h.361A1.237,1.237,0,0,0,61.5-.537a1.03,1.03,0,0,0,.352-.8Zm2.941,0a1.063,1.063,0,0,0,.372.8,1.227,1.227,0,0,0,.838.317h.361V0H64.809V-1.337ZM61.823-13.5l3.03,3.3L64.862,0H61.855V-11.007a11.027,11.027,0,0,0-.119-1.809l-.119-.687Zm13.1.3V-2.281q0,.757.057,1.339t.119.9l.062.32h-.2l-3.038-3.5L71.915-13.2Zm-.053,1.337V-13.2H76.51v.22h-.374a1.225,1.225,0,0,0-.84.317,1.066,1.066,0,0,0-.37.8Zm-2.959,0a1.062,1.062,0,0,0-.357-.8,1.216,1.216,0,0,0-.849-.317h-.374v-.22h1.637v1.337Zm13.01-1.618a17.087,17.087,0,0,1,2.037.123,15.374,15.374,0,0,1,1.914.347,6.921,6.921,0,0,1,1.5.538l0,3.489H90.2a5.324,5.324,0,0,0-1.048-2.194,3.806,3.806,0,0,0-1.593-1.116,5.755,5.755,0,0,0-1.966-.327,4.45,4.45,0,0,0-2.59.725,4.419,4.419,0,0,0-1.588,2.1,9.072,9.072,0,0,0-.537,3.306,9.211,9.211,0,0,0,.483,3.148A4.374,4.374,0,0,0,82.792-1.3a3.67,3.67,0,0,0,2.294.719A3.97,3.97,0,0,0,86.418-.8a3.153,3.153,0,0,0,1.116-.674A2.474,2.474,0,0,0,88.216-2.6l.022-2.645a.791.791,0,0,0-.246-.651,1.056,1.056,0,0,0-.712-.22h-.308V-6.31h5.655v.194h-.281q-.977,0-.95.88L91.382-2.3a5.211,5.211,0,0,1-1.42,1.2,9.427,9.427,0,0,1-2.288.993,10.071,10.071,0,0,1-2.883.393A8.4,8.4,0,0,1,80.97-.557a6.042,6.042,0,0,1-2.532-2.369,7.2,7.2,0,0,1-.9-3.7,7.167,7.167,0,0,1,.9-3.676,5.938,5.938,0,0,1,2.55-2.356A8.772,8.772,0,0,1,84.925-13.481Zm14.308.413h3.416l2.963,7.841L104.386.237Zm9.83-.444.4,2.022-4.385,9.512-.123.332a8.206,8.206,0,0,0-.251.839A4.564,4.564,0,0,0,104.57.237h-.185L103.794-2.2l5.089-11.31Zm0,.009,4.317,8.674L112.353.237,107.62-9.284Zm7.441.435-3.612,11.09-.1.349a8.057,8.057,0,0,0-.189.863,4.309,4.309,0,0,0-.056,1h-.193l-.611-1.978,3.348-11.328Zm-1.8,1.288a.951.951,0,0,0-.08-.912.812.812,0,0,0-.634-.288h-.163v-.22h4.133v.22h-.154a1.971,1.971,0,0,0-1.024.3,1.588,1.588,0,0,0-.7.912Zm-11.552,0-3.422.009a1.809,1.809,0,0,0-.7-.912,1.831,1.831,0,0,0-1.01-.3h-.163v-.22h6.175v.22h-.189a.856.856,0,0,0-.631.29Q102.931-12.4,103.151-11.776ZM122.945-13.2V0h-3.162V-13.2Zm-3.1,11.819V0h-1.6V-.22h.268a1.279,1.279,0,0,0,.885-.339,1.1,1.1,0,0,0,.384-.823Zm3.044,0h.056a1.142,1.142,0,0,0,.386.823,1.271,1.271,0,0,0,.894.339h.258L124.5,0h-1.6Zm0-10.438V-13.2h1.59l-.009.22h-.246a1.294,1.294,0,0,0-.893.328,1.129,1.129,0,0,0-.386.834Zm-3.044,0h-.066a1.084,1.084,0,0,0-.384-.834,1.308,1.308,0,0,0-.888-.328h-.264v-.22h1.6Zm13.586-1.315V0h-3.193V-13.134Zm4.776-.088v.887H125.465v-.887Zm0,.816v2.333h-.229v-.205a2,2,0,0,0-.517-1.489,2.053,2.053,0,0,0-1.491-.568v-.071Zm0-1.155V-13l-2.317-.22a7.922,7.922,0,0,0,.9-.055q.482-.055.879-.136A2.923,2.923,0,0,0,138.211-13.561ZM130.286-1.381V0H128.8V-.22h.238a1.146,1.146,0,0,0,.841-.339,1.2,1.2,0,0,0,.363-.823Zm3.07,0h.079a1.09,1.09,0,0,0,.349.826,1.186,1.186,0,0,0,.854.342h.229V0h-1.512ZM127.7-12.406v.071a2.029,2.029,0,0,0-1.484.568,2.06,2.06,0,0,0-.524,1.489v.205h-.229v-2.333Zm-2.237-1.155q.188.062.573.145t.859.138a7.7,7.7,0,0,0,.885.055l-2.317.22Zm27.486.361V0h-3.158V-13.2ZM144-13.2V0h-3.171V-13.2Zm5.974,6.184v.874H143.8v-.874Zm-9.079,5.634V0h-1.512V-.22h.251a1.162,1.162,0,0,0,.838-.339,1.132,1.132,0,0,0,.358-.823Zm3.053,0H144a1.148,1.148,0,0,0,.364.823,1.173,1.173,0,0,0,.845.339h.237V0h-1.5Zm0-10.438V-13.2h1.5v.22h-.237a1.194,1.194,0,0,0-.845.328,1.135,1.135,0,0,0-.364.834Zm-3.053,0h-.066a1.12,1.12,0,0,0-.358-.834,1.182,1.182,0,0,0-.838-.328h-.251v-.22h1.512Zm8.952,10.438V0h-1.5V-.22h.237a1.156,1.156,0,0,0,.844-.339,1.179,1.179,0,0,0,.362-.823Zm3.039,0h.066a1.153,1.153,0,0,0,.353.826,1.151,1.151,0,0,0,.844.342h.25V0h-1.512Zm.013-10.438V-13.2h1.512v.22h-.25a1.177,1.177,0,0,0-.844.328,1.129,1.129,0,0,0-.353.834Zm-3.053,0h-.056a1.164,1.164,0,0,0-.362-.834,1.176,1.176,0,0,0-.844-.328h-.237v-.22h1.5Z" transform="translate(754.75 742.801)" fill="#041141"/>
      <path id="Path_227897" data-name="Path 227897" d="M-93.273-24A17.4,17.4,0,0,1-85.9-22.572a10.611,10.611,0,0,1,4.719,4.116A12.134,12.134,0,0,1-79.534-12a12.093,12.093,0,0,1-1.645,6.449A10.674,10.674,0,0,1-85.9-1.436,17.314,17.314,0,0,1-93.273,0h-8.884l-.08-1.589h8.478a7.147,7.147,0,0,0,5.94-2.766Q-85.644-7.121-85.644-12t-2.162-7.657a7.127,7.127,0,0,0-5.952-2.778h-8.854V-24Zm-4.972,0V0h-5.782V-24Zm-5.677,21.424V0h-2.856V-.4h.5a2.168,2.168,0,0,0,1.588-.648,2.14,2.14,0,0,0,.668-1.528Zm-.024-18.9h-.08a2.1,2.1,0,0,0-.7-1.531,2.3,2.3,0,0,0-1.6-.6h-.48V-24h2.856ZM-68.726-24V0h-5.75V-24Zm-5.63,21.489V0H-77.27V-.4h.487a2.325,2.325,0,0,0,1.609-.616,1.991,1.991,0,0,0,.7-1.5Zm5.534,0h.1a2.077,2.077,0,0,0,.7,1.5A2.311,2.311,0,0,0-66.392-.4h.469l.016.4h-2.914Zm0-18.978V-24h2.89l-.016.4h-.447a2.352,2.352,0,0,0-1.624.6,2.052,2.052,0,0,0-.7,1.516Zm-5.534,0h-.12a1.97,1.97,0,0,0-.7-1.516,2.377,2.377,0,0,0-1.615-.6h-.481V-24h2.914Zm22.567-3.606L-39.939-.216h-6.754l-7.451-17.53ZM-59.314-2.629a1.441,1.441,0,0,0,.12,1.654A1.707,1.707,0,0,0-57.948-.4h.305V0h-8V-.4h.32a3.4,3.4,0,0,0,1.7-.507,3.71,3.71,0,0,0,1.448-1.722Zm7.526-22.466.086,4.8L-60.4-.12h-2.957L-54-20.246q.1-.243.377-.857t.6-1.386q.324-.773.587-1.481a4.962,4.962,0,0,0,.306-1.125Zm3.481,17.256v1.564H-58.519V-7.839Zm.583,5.21h6.634A3.754,3.754,0,0,0-39.634-.907a3.375,3.375,0,0,0,1.68.507h.32V0H-49.4V-.4h.32a1.7,1.7,0,0,0,1.24-.575A1.441,1.441,0,0,0-47.724-2.629Zm37.13-21.882.336,4.106L-21.027-3.3l-.361.643a11.255,11.255,0,0,0-.7,1.571A6,6,0,0,0-22.476.754h-.351l-1.556-3.273ZM-35.176-2.559V0h-3.941V-.4h.551a2.793,2.793,0,0,0,1.735-.563,2.31,2.31,0,0,0,.888-1.6Zm1.734.576a1.833,1.833,0,0,0,.268,1.007,1.179,1.179,0,0,0,1.115.592h.56V0h-2.4l.243-1.983Zm.619-22.528h.327l1.359,3.841L-33.666,0h-2.612Zm.327,0L-20.645-6.8-22.827.754-33.45-15.376Zm22.261,0L-6.683,0h-6.124L-14.8-14.583l4.206-9.928Zm2.4,21.952h.776a2.461,2.461,0,0,0,.923,1.6A2.68,2.68,0,0,0-4.468-.4h.576V0H-7.835Zm-5.253.576h.231L-12.613,0H-15.03V-.384h.576a1.168,1.168,0,0,0,1.147-.588A1.833,1.833,0,0,0-13.087-1.983Zm24.22-22.528a18.348,18.348,0,0,1,5.794.863,13.028,13.028,0,0,1,4.49,2.495A10.879,10.879,0,0,1,24.3-17.209a13.02,13.02,0,0,1,1,5.233,12.869,12.869,0,0,1-1,5.2,10.9,10.9,0,0,1-2.888,3.932,13.028,13.028,0,0,1-4.49,2.5,18.348,18.348,0,0,1-5.794.863A18.191,18.191,0,0,1,5.371-.352a13.043,13.043,0,0,1-4.482-2.5A10.9,10.9,0,0,1-2-6.779a12.872,12.872,0,0,1-1-5.2,13.024,13.024,0,0,1,1-5.233A10.874,10.874,0,0,1,.889-21.153a13.043,13.043,0,0,1,4.482-2.495A18.191,18.191,0,0,1,11.133-24.511Zm0,23.458a6.974,6.974,0,0,0,4.255-1.331A8.5,8.5,0,0,0,18.18-6.165a15.514,15.514,0,0,0,.987-5.811,15.669,15.669,0,0,0-.987-5.855,8.5,8.5,0,0,0-2.792-3.786,6.974,6.974,0,0,0-4.255-1.331,6.911,6.911,0,0,0-4.215,1.331,8.577,8.577,0,0,0-2.8,3.786,15.5,15.5,0,0,0-1,5.855,15.345,15.345,0,0,0,1,5.811,8.58,8.58,0,0,0,2.8,3.781A6.911,6.911,0,0,0,11.133-1.053Zm18.8-23.5L53.4-3.914,53.827.511,30.356-20.124Zm.177,22.12V0H27.133V-.4h.656a2.249,2.249,0,0,0,1.56-.576,1.873,1.873,0,0,0,.64-1.456Zm5.347,0a1.933,1.933,0,0,0,.677,1.456A2.23,2.23,0,0,0,37.656-.4h.656V0H35.36V-2.431Zm-5.524-22.12,5.509,6L35.456,0H29.988V-20.013a20.048,20.048,0,0,0-.216-3.289l-.216-1.249ZM53.755-24V-4.147q0,1.377.1,2.435t.216,1.641l.112.582h-.36L48.3-5.858,48.279-24Zm-.1,2.431V-24h2.976v.4h-.68a2.227,2.227,0,0,0-1.528.576,1.937,1.937,0,0,0-.672,1.456Zm-5.379,0a1.932,1.932,0,0,0-.649-1.456,2.211,2.211,0,0,0-1.543-.576h-.68V-24h2.976v2.431Zm24-2.431a17.4,17.4,0,0,1,7.374,1.428,10.611,10.611,0,0,1,4.719,4.116A12.134,12.134,0,0,1,86.021-12a12.093,12.093,0,0,1-1.645,6.449,10.674,10.674,0,0,1-4.719,4.116A17.314,17.314,0,0,1,72.283,0H63.4l-.08-1.589H71.8a7.147,7.147,0,0,0,5.94-2.766Q79.911-7.121,79.911-12t-2.162-7.657A7.127,7.127,0,0,0,71.8-22.436H62.943V-24ZM67.31-24V0H61.528V-24ZM61.633-2.576V0H58.777V-.4h.5a2.168,2.168,0,0,0,1.588-.648,2.14,2.14,0,0,0,.668-1.528Zm-.024-18.9h-.08a2.1,2.1,0,0,0-.7-1.531,2.3,2.3,0,0,0-1.6-.6h-.48V-24h2.856Zm35.433-3.038q.8,0,1.936.068t2.261.18q1.13.112,1.991.252a6.1,6.1,0,0,1,1.148.26l-.519,4.858h-.334a3.629,3.629,0,0,0-1.29-2.908,5.51,5.51,0,0,0-3.674-1.1,5.212,5.212,0,0,0-3.117.857A2.862,2.862,0,0,0,94.173-19.8a2.211,2.211,0,0,0,.286,1.3,3.389,3.389,0,0,0,.954,1.012,14.771,14.771,0,0,0,1.365.87l6.307,3.884a6.353,6.353,0,0,1,2.5,2.353,6.142,6.142,0,0,1,.8,3.651A7.061,7.061,0,0,1,105.1-2.847a7.38,7.38,0,0,1-3.248,2.5,12.589,12.589,0,0,1-4.855.86A17.554,17.554,0,0,1,93.8.238a11.067,11.067,0,0,1-2.537-.753,5.274,5.274,0,0,1-1.653-1.1,4.605,4.605,0,0,1-.266-1.918,9.944,9.944,0,0,1,.371-2.281,7.8,7.8,0,0,1,.78-1.9h.334A6.331,6.331,0,0,0,91.486-4.4a5.825,5.825,0,0,0,2.292,2.413,7.1,7.1,0,0,0,3.65.912,5,5,0,0,0,3.487-1.078A3.359,3.359,0,0,0,102.068-4.7a2.971,2.971,0,0,0-.7-1.922,7.266,7.266,0,0,0-2.29-1.691l-5.693-3.61a6.486,6.486,0,0,1-2.892-2.763,6.359,6.359,0,0,1-.655-3.767,6.834,6.834,0,0,1,1.135-3.263,6.071,6.071,0,0,1,2.5-2.076A8.444,8.444,0,0,1,97.041-24.511Zm7.369.36-.058.7H100.08v-.7Z" transform="translate(754.75 777.801)" fill="#cf9115"/>
    </g>
  </g>
</svg>
