<svg xmlns="http://www.w3.org/2000/svg" width="44" height="44" viewBox="0 0 44 44">
  <g id="Share_icon" transform="translate(-0.145 0.092)">
    <path id="Path_217571" data-name="Path 217571" d="M10,0H34A10,10,0,0,1,44,10V34A10,10,0,0,1,34,44H10A10,10,0,0,1,0,34V10A10,10,0,0,1,10,0Z" transform="translate(0.145 -0.092)" fill="#cf9115"/>
    <g id="share" transform="matrix(-1, 0.017, -0.017, -1, 37.635, 38.028)">
      <path id="Path_214532" data-name="Path 214532" d="M9,7.027A4.027,4.027,0,1,0,13.027,3,4.027,4.027,0,0,0,9,7.027Z" transform="translate(2.225)" fill="#020717"/>
      <path id="Path_214533" data-name="Path 214533" d="M2.5,19.027A4.027,4.027,0,1,0,6.527,15,4.027,4.027,0,0,0,2.5,19.027Z" transform="translate(0 4.108)" fill="#020717"/>
      <path id="Path_214534" data-name="Path 214534" d="M19.527,23.054a4.027,4.027,0,1,1,4.027-4.027A4.027,4.027,0,0,1,19.527,23.054Z" transform="translate(4.45 4.108)" fill="#020717"/>
      <path id="Path_214535" data-name="Path 214535" d="M8.558,8.012A1.007,1.007,0,0,0,7.226,6.5,11.719,11.719,0,0,0,3.25,15.31a1.007,1.007,0,0,0,2.013,0A9.706,9.706,0,0,1,8.558,8.012Z" transform="translate(0.257 1.112)" fill="#020717"/>
      <path id="Path_214536" data-name="Path 214536" d="M18.214,6.5a1.007,1.007,0,0,0-1.332,1.51,9.706,9.706,0,0,1,3.295,7.3,1.007,1.007,0,0,0,2.013,0A11.719,11.719,0,0,0,18.214,6.5Z" transform="translate(4.806 1.112)" fill="#020717"/>
      <path id="Path_214537" data-name="Path 214537" d="M10.508,20.03a1.007,1.007,0,1,0-.5,1.95,11.828,11.828,0,0,0,5.871,0,1.007,1.007,0,1,0-.5-1.95,9.817,9.817,0,0,1-4.867,0Z" transform="translate(2.31 5.818)" fill="#020717"/>
    </g>
  </g>
</svg>
